<?xml version="1.0" encoding="utf-8"?>
<svg viewBox="171.683 91.236 205.883 184.858" xmlns="http://www.w3.org/2000/svg">
  <circle cx="275.104" cy="179.291" r="50" style="fill: rgb(167, 170, 173);"/>
  <path fill-rule="evenodd" clip-rule="evenodd" d="M 251.104 163.291 C 251.104 159.977 253.791 157.291 257.104 157.291 L 293.104 157.291 C 296.418 157.291 299.104 159.977 299.104 163.291 L 299.104 203.291 C 299.104 206.605 296.418 209.291 293.104 209.291 L 257.104 209.291 C 253.791 209.291 251.104 206.605 251.104 203.291 L 251.104 163.291 Z M 257.104 161.291 C 256 161.291 255.104 162.186 255.104 163.291 L 255.104 203.291 C 255.104 204.396 256 205.291 257.104 205.291 L 293.104 205.291 C 294.209 205.291 295.104 204.396 295.104 203.291 L 295.104 163.291 C 295.104 162.186 294.209 161.291 293.104 161.291 L 257.104 161.291 Z" fill="white"/>
  <path fill-rule="evenodd" clip-rule="evenodd" d="M 263.104 156.291 C 263.104 150.216 268.477 145.291 275.104 145.291 C 281.732 145.291 287.104 150.216 287.104 156.291 L 287.104 163.291 C 287.104 164.396 286.128 165.291 284.923 165.291 C 283.718 165.291 283.104 164.396 283.104 163.291 L 283.104 156.291 C 283.104 152.425 279.322 149.291 275.104 149.291 C 270.887 149.291 267.104 152.425 267.104 156.291 L 267.104 163.291 C 267.104 164.396 266.491 165.291 265.286 165.291 C 264.081 165.291 263.104 164.396 263.104 163.291 L 263.104 156.291 Z" fill="white"/>
  <path d="M 269.104 176.291 C 269.104 177.948 267.761 179.291 266.104 179.291 C 264.448 179.291 263.104 177.948 263.104 176.291 C 263.104 174.634 264.448 173.291 266.104 173.291 C 267.761 173.291 269.104 174.634 269.104 176.291 Z" fill="white"/>
  <path d="M 265.104 187.291 C 266.447 191.929 270.417 195.291 275.104 195.291 C 279.792 195.291 283.761 191.929 285.104 187.291" stroke="white" stroke-width="4" stroke-linecap="round"/>
  <path d="M 277.104 177.291 C 278.779 176.035 280.855 175.291 283.104 175.291 C 285.354 175.291 287.43 176.035 289.104 177.291" stroke="white" stroke-width="4" stroke-linecap="round"/>
</svg>